<svg width="62" height="79" viewBox="0 0 62 79" fill="none" xmlns="http://www.w3.org/2000/svg">
<path d="M31.5 35.0724L0.5 17.5724V50.5724L31.5 67.5724V35.0724Z" fill="#FF6D00"/>
<path d="M61.5 17.5724L31.5 35.0724V67.5724L61.5 50.5724V17.5724Z" fill="#FF8D33"/>
<path d="M31.5 0.572435L0.5 17.5724L31.5 35.0724L61.5 17.5724L31.5 0.572435Z" fill="#FF6D00"/>
<path d="M0.5 60.5724L31.5 78.0724L61.5 60.5724V50.5724L31.5 67.5724L0.5 50.5724V60.5724Z" fill="#00C852"/>
<path d="M0.5 17.5724L31.5 0.572435L61.5 17.5724M0.5 17.5724L31.5 35.0724M0.5 17.5724V50.5724M61.5 17.5724L31.5 35.0724M61.5 17.5724V50.5724M31.5 35.0724V67.5724M31.5 67.5724L61.5 50.5724M31.5 67.5724L0.5 50.5724M61.5 50.5724V60.5724L31.5 78.0724L0.5 60.5724V50.5724" stroke="#DF660B" stroke-opacity="0.17"/>
</svg>
