<svg width="44" height="26" viewBox="0 0 44 26" fill="none" xmlns="http://www.w3.org/2000/svg">
<path d="M43.6583 6.03517L37.7789 6.8139L32.0552 25.776L28.3562 24.6858L33.5737 7.35901L22.9051 8.79966L22.3989 4.98388L34.8197 3.34854L35.832 0L39.531 1.12916L39.0248 2.76449L43.1521 2.21938L43.6583 6.03517Z" fill="white"/>
<path d="M23.1673 4.16623C23.6085 4.71134 23.92 5.29539 24.1017 5.91837C24.3094 6.54136 24.4132 7.20328 24.4132 7.90414C24.4132 9.12415 24.1017 10.4091 23.4787 11.7589C22.8558 13.1087 21.9732 14.4714 20.8311 15.8472C20.1562 16.6778 19.3904 17.4955 18.5338 18.3002C17.6772 19.1049 16.7427 19.8966 15.7304 20.6753C14.7959 21.3762 13.8874 21.9862 13.0048 22.5053C12.1222 23.0245 11.2397 23.4658 10.3571 23.8292C10.1754 23.9071 9.99372 23.9849 9.81201 24.0628C9.65627 24.1147 9.48754 24.1666 9.30584 24.2186C8.73477 24.4262 8.15072 24.5949 7.55369 24.7247C6.98262 24.8286 6.41155 24.9194 5.84048 24.9973C4.98388 25.1011 4.1143 25.166 3.23173 25.192C2.37513 25.192 1.50555 25.192 0.622985 25.192C0.519154 25.192 0.415323 25.192 0.311492 25.192C0.207662 25.192 0.103831 25.192 0 25.192L4.90601 10.1625H8.95541L5.37325 21.1815C6.87879 20.9738 8.28051 20.5585 9.57839 19.9355C10.9022 19.3125 12.1612 18.5468 13.3552 17.6383C13.7186 17.3527 14.1989 16.9504 14.7959 16.4312C15.4189 15.9121 16.0548 15.328 16.7038 14.6791C17.2229 14.1599 17.7291 13.6148 18.2223 13.0438C18.7415 12.4467 19.1957 11.8497 19.5851 11.2527C19.9225 10.7076 20.1821 10.1754 20.3638 9.65628C20.5715 9.13713 20.6753 8.63095 20.6753 8.13776C20.6753 7.8003 20.6234 7.48881 20.5196 7.20328C20.4157 6.89179 20.234 6.60625 19.9745 6.34667V6.30774C19.7149 6.0222 19.3385 5.81454 18.8453 5.68475C18.3521 5.55496 17.768 5.49007 17.0931 5.49007C16.6778 5.49007 16.2495 5.51603 15.8082 5.56794C15.367 5.61986 14.8997 5.68475 14.4065 5.76263C12.8491 6.0222 11.1748 6.46348 9.38371 7.08647C7.59263 7.6835 5.77559 8.41031 3.93259 9.26692C3.56918 9.42266 3.20578 9.57841 2.84237 9.73415C2.50492 9.8899 2.16747 10.0586 1.83002 10.2403L0.155746 6.73604C0.597027 6.52838 1.03831 6.32072 1.47959 6.11305C1.94683 5.90539 2.41407 5.69773 2.88131 5.49007C4.77622 4.68538 6.64517 3.97154 8.48817 3.34856C10.3571 2.72557 12.1093 2.27131 13.7446 1.98578C14.2638 1.88195 14.7959 1.80408 15.341 1.75216C15.8861 1.70024 16.4442 1.67429 17.0153 1.67429C17.0672 1.67429 17.1061 1.67429 17.1321 1.67429C17.184 1.67429 17.2359 1.67429 17.2878 1.67429C18.404 1.70024 19.4813 1.89493 20.5196 2.25834C21.5838 2.62174 22.4664 3.25771 23.1673 4.16623Z" fill="white"/>
</svg>
